<?xml version="1.0" encoding="UTF-8" standalone="no"?>
<svg xmlns="http://www.w3.org/2000/svg" height="297mm" width="210mm" version="1.1" viewBox="0 0 210 297">
	<path style="stroke-width:.40085" d="m165.52 0.0000012074c-0.29289 0-0.63199 0.98123-1.6008 3.9825-0.79953 2.4769-2.4515 7.0219-3.671 10.1-3.1341 7.9102-14.988 35.67-17.785 41.651-1.289 2.7558-2.8506 6.1831-3.4703 7.6161-1.3929 3.2208-1.2816 3.0908-1.9096 2.232-0.28786-0.3937-0.87225-0.64938-1.2986-0.56814-0.64144 0.12221-0.79603 0.54516-0.89554 2.4508-0.11529 2.2074-0.18182 2.3345-1.6034 3.0602-0.8157 0.41642-3.1967 2.0719-5.2912 3.6788-2.0944 1.6069-5.6118 3.9962-7.8165 5.3096-2.2046 1.3134-5.3081 3.2646-6.8965 4.336-1.5884 1.0715-2.9956 1.9482-3.127 1.9482-0.13147 0-0.49691-0.6174-0.81219-1.372-0.49985-1.1962-0.49722-1.5541 0.0202-2.793 1.0188-2.4385 0.83336-2.9083-1.2618-3.1955-2.7006-0.37016-11.156 1.1318-16.984 3.0169-4.1002 1.3262-4.2659 1.6607-1.6432 3.3163l1.496 0.94446-0.34838 3.3042c-0.2253 2.1366-0.19931 3.9997 0.07359 5.2722 0.23216 1.0824 0.422 2.1303 0.422 2.3286 0 0.19835-1.2575 0.33729-2.7946 0.30879-2.1998-0.0408-2.9679 0.10494-3.6085 0.68471-1.0871 0.98383-2.5151 3.6042-3.1725 5.8217-0.29412 0.99209-0.89274 2.5069-1.3302 3.3663-1.1947 2.3468-2.694 11.302-2.9595 17.678-0.16826 4.0414-0.4947 6.5654-1.1665 9.0191-0.51308 1.874-1.0435 4.1908-1.1787 5.1486-0.15377 1.0898-0.87374 2.6649-1.9239 4.2089-2.6722 3.9288-3.4934 7.018-3.7729 14.192l-0.23818 6.1129h1.2193c2.0893 0 2.4857-0.3398 2.5054-2.1473 0.0095-0.9134 0.25026-2.2019 0.53404-2.8633l0.51591-1.2025 0.448 1.403c0.24642 0.77163 0.5674 2.0794 0.71321 2.9061 0.14582 0.82674 0.41138 1.5031 0.59018 1.5031 0.17885 0 0.52379 0.6016 0.76642 1.3369 0.53584 1.6236 2.2356 3.2777 3.7297 3.6298 0.60629 0.14282 1.1023 0.50195 1.1023 0.7981 0 0.35642 0.77372 0.6294 2.2887 0.80746 2.7015 0.3175 6.038 1.4308 6.295 2.1006 0.09986 0.26026-0.23765 0.57838-0.74995 0.70695-0.74031 0.18581-1.0022 0.62529-1.2766 2.1412l-0.3453 1.9074-3.8174 2.0042c-2.0996 1.1023-5.5264 3.0116-7.6154 4.2429-2.0889 1.2312-4.6363 2.7161-5.6609 3.2997-6.1198 3.486-14.971 14.287-17.026 20.776-3.3816 10.677-5.8542 16.558-7.5559 17.97-0.31038 0.25757-0.48086 0.6858-0.37884 0.95159 0.10199 0.26578-0.77969 1.6533-1.9593 3.0834-1.1795 1.43-2.0807 2.7918-2.0026 3.0263 0.07813 0.23447-1.0802 1.6975-2.5741 3.2511s-3.9596 4.2099-5.4793 5.9029c-1.5196 1.6929-4.9469 4.9933-7.616 7.334-6.5817 5.7719-6.22 5.4222-5.2539 5.0791 0.44095-0.15657-0.64141 0.85152-2.4051 2.2402-4.015 3.1613-4.323 3.4625-2.7057 2.6465 0.71655-0.36156 1.3028-0.58467 1.3028-0.4958 0 0.0889-0.99015 0.97685-2.2003 1.9731-1.2102 0.99629-2.9457 2.7771-3.8567 3.9573-0.91101 1.1802-2.2208 2.6371-2.9105 3.2374-1.5258 1.328-0.77414 1.4928 0.81965 0.17969 0.62324-0.51342 2.2153-1.7231 3.5382-2.6883l2.4051-1.7549-1.1592 1.3856c-0.6376 0.76205-2.0224 1.9677-3.0773 2.6792-2.9669 2.001-2.8216 2.4253 0.25945 0.75754 2.5999-1.4073 2.6302-1.3042 0.16897 0.57429-0.8426 0.64314-0.59228 0.60707 1.5727-0.22631 1.4161-0.54511 2.667-0.89865 2.78-0.78568 0.11294 0.11298-0.86527 1.194-2.1738 2.4023-1.3086 1.2083-2.238 2.197-2.0653 2.1971 0.4755 0 4.3422-1.9982 5.6449-2.9176l1.1487-0.81054-0.45229 0.84523c-0.24884 0.46491-1.6557 1.5182-3.1264 2.3406-1.4707 0.82248-2.4726 1.5625-2.2265 1.6446 0.24612 0.0821 2.2183-0.91829 4.3827-2.2229 5.0382-3.0369 6.5408-3.8018 6.5408-3.3301 0 0.20895-0.76668 1.0452-1.7036 1.8584l-1.7036 1.4787 1.6362-0.81979c0.89983-0.4509 2.6877-1.9591 3.9731-3.3515 2.9462-3.1913 4.4671-4.3486 2.7894-2.1224-0.98519 1.3072-0.50688 1.0184 2.8561-1.7244 2.2217-1.812 4.1895-3.2945 4.3729-3.2945 0.65287 0 4.5077-3.1633 7.7086-6.3257 5.045-4.9844 8.4978-10.181 11.359-17.096l1.3152-3.1787 1.1509 1.3748c0.63309 0.75614 1.7944 2.5473 2.5806 3.9803 1.7737 3.2328 5.0292 7.6731 6.5864 8.9835 2.5012 2.1046 2.4841 5.1151-0.05099 9.0375-2.8911 4.473-3.6027 6.182-3.1832 7.6446 0.50131 1.7482 1.4159 2.6861 3.7958 3.893 1.0974 0.55648 3.0894 2.1611 4.4266 3.5658 1.7224 1.8093 2.9196 2.6996 4.1057 3.0535 2.1263 0.63444 11.998 8.2325 16.102 12.393 2.1313 2.1608 3.7115 3.3728 5.3151 4.0766 1.595 0.69995 2.342 0.86032 2.4809 0.53256 0.3593-0.84792 2.2214 1.8609 2.4843 3.6139 0.19985 1.3328 0.46373 1.7588 1.2454 2.0109 1.2807 0.413 9.8811 0.65855 10.969 0.3132 1.1083-0.35174 1.6542-1.813 0.97092-2.599-0.76188-0.87638-4.1986-6.5211-4.1986-6.8962 0-0.1755 0.21121-0.31901 0.46945-0.31901 0.72751 0 1.9356-1.2503 1.9356-2.0033 0-0.37206-0.92923-2.0577-2.0649-3.7459l-2.065-3.0694h-2.1106c-2.7096 0-5.4057-1.1599-6.7291-2.8948-0.57039-0.74785-2.4064-2.4317-4.08-3.742-2.6156-2.0478-5.9629-5.7088-11.332-12.395-0.70432-0.87698-1.2806-1.8472-1.2806-2.1561 0-0.30886 0.62112-1.2491 1.3803-2.0894 0.75917-0.84033 1.4949-2.1388 1.635-2.8856 0.20788-1.108 0.52544-1.4544 1.7262-1.8828 0.80933-0.28877 4.3181-1.9362 7.7971-3.6609 5.4994-2.7262 6.806-3.5698 10.004-6.4587 7.2383-6.538 7.2238-6.5209 7.0555-8.2856-0.1617-1.6958 0.47999-2.4529 2.0789-2.4529 0.45275 0 1.5605-0.37621 2.4617-0.83597 0.90123-0.45976 2.6528-0.93456 3.8923-1.0551 1.2396-0.12048 2.5243-0.45013 2.855-0.73259 0.33067-0.28248 2.9462-1.3617 5.8122-2.3982 8.2304-2.9765 14.266-6.3397 19.873-11.073 4.9416-4.172 6.312-5.0188 10.586-6.5417 2.3364-0.83243 4.3677-1.3938 4.514-1.2476 0.3984 0.39842-1.122 2.9984-2.2865 3.9102-0.81787 0.64038-1.0597 1.249-1.2205 3.0709l-0.20037 2.2723-1.3074-0.10242c-1.9582-0.15332-7.3839 2.6874-8.39 4.3928-2.6484 4.4888-2.841 10.597-0.37567 11.916 0.8125 0.43484 1.3729 0.2229 5.1468-1.9467 2.3292-1.3391 4.4225-2.4348 4.6517-2.4348 0.73649 0 2.8802-2.9554 2.8802-3.9708 0-0.67951 0.91633-1.9238 2.9731-4.0374 2.4025-2.4688 3.0181-3.3592 3.2075-4.6386 0.37836-2.5569 2.6436-9.0067 4.0634-11.57 1.2743-2.3006 1.4035-2.4036 4.3709-3.4855 1.6818-0.61316 3.9067-1.2361 4.9441-1.3844 1.0374-0.14825 2.4724-0.62376 3.189-1.0567l1.3027-0.78712v0.975c0 0.53624 0.19467 1.5333 0.43258 2.2158 0.33156 0.95092 0.28484 1.8782-0.19968 3.9681-0.34777 1.4999-0.99716 6.4167-1.4431 10.926-0.446 4.5094-0.9424 8.2973-1.1031 8.4177-0.16072 0.12038-0.49108 0.57964-0.734 1.0206-0.24298 0.44093-0.80438 0.85612-1.2476 0.92259-2.145 0.32174-4.5237 5.0233-4.5237 8.9411 0 2.9108 1.0775 4.5397 3.3881 5.1215 3.2837 0.82686 3.4657 0.74234 6.8808-3.1951 3.8288-4.4144 4.5617-5.6762 4.5617-7.8629 0-2.2225 0.64857-3.6184 2.4914-5.3687 1.4759-1.4019 1.5178-1.5193 1.5178-4.2614 0-1.5508 0.35161-5.141 0.78145-7.9782 0.98177-6.4808 2.1385-10.38 4.0866-13.777 1.3596-2.3705 1.3852-4.6403 0.0832-7.3706-0.95846-2.01-4.5798-4.6548-6.3734-4.6548-0.764 0-3.1466-0.254-5.2948-0.56449-2.1481-0.31047-4.9576-0.68604-6.2434-0.83461-2.5638-0.29626-3.8762-1.214-3.8743-2.7096 0-0.49606 0.74816-2.6155 1.6614-4.71 1.4643-3.3581 1.66-4.1637 1.656-6.8183-0.004-2.6703-0.16827-3.3268-1.4542-5.8123-0.79729-1.5411-1.9689-3.5234-2.6036-4.4053-2.4106-3.3495-6.1903-9.5639-7.2675-11.949-1.6782-3.7156-2.2678-5.6349-4.8261-15.71-1.2876-5.0707-2.4566-9.5164-2.5976-9.8795-0.21181-0.54503 0.11518-0.70721 1.875-0.92971 1.1723-0.14823 2.6725-0.43625 3.334-0.64011 1.6434-0.50655 7.205-1.309 9.482-1.3682 2.1089-0.0547 3.1447-0.70548 3.1447-1.9754 0-0.64174 0.26829-0.88776 1.0372-0.95139 0.5704-0.0472 1.4966-0.44734 2.0582-0.88915 0.56171-0.44181 1.3433-0.80331 1.7368-0.80331 1.0577 0 4.7345-4.3248 5.2248-6.1458 0.23053-0.85628 0.44458-2.887 0.47577-4.5127 0.0705-3.688-0.38742-4.3931-4.7429-7.3009-3.9424-2.6321-6.2636-4.3804-8.5958-6.4747-0.99206-0.89087-2.0744-1.626-2.4051-1.6336-0.33069-0.0075-2.7658-1.9114-5.4114-4.2307s-5.9897-5.1036-7.4313-6.1874-3.0375-2.5337-3.5464-3.222c-1.1054-1.4952-4.5043-3.171-6.4592-3.1847-2.0947-0.01469-6.3854-1.1178-7.8365-2.0146-0.70242-0.43414-1.5065-0.78934-1.7869-0.78934-0.77055 0-1.5732 1.2667-1.5876 2.5053-0.014 1.1786-0.41036 1.3468-1.6333 0.69232-1.6367-0.87594-1.6601-1.7336-0.13766-5.0644 11.658-25.506 21.62-49.186 23.769-56.5 0.94961-3.2316 1.0656-6.7085 0.2716-8.1418-0.16-0.30401-0.27-0.47961-0.39-0.48zm-26.58 77.836c0.21638-0.0066 0.47587 0.08889 0.8588 0.26341 0.582 0.26517 1.3884 0.4822 1.7919 0.4822 0.40359 0 0.93943 0.24769 1.1907 0.55051 0.35788 0.43119 0.2425 0.69111-0.53188 1.1985-0.54386 0.35634-1.7476 1.925-2.6749 3.4859-1.5289 2.5736-1.7545 3.3115-2.4221 7.9208-0.40485 2.7955-1.3454 7.6984-2.0902 10.895-0.93251 4.0029-1.2292 5.9694-0.95314 6.3172 0.34572 0.4354 0.20857 3.5553-0.17092 3.8874-0.0736 0.0645-4.8239 1.6922-10.556 3.6172-3.564 1.1969-6.7505 2.2847-8.676 2.9581-1.4025 0.38717-2.7305 0.67122-3.9338 0.87981-1.0243-0.76441-1.8583-1.5835-1.7374-1.8987 0.42941-1.119-0.77522-4.9414-1.8563-5.8904-0.56807-0.4986-1.4368-1.6481-1.9304-2.5543-1.1982-2.1996-0.88756-3.8049 0.94542-4.8864 0.76172-0.44943 1.3552-1.1237 1.3552-1.5398 0-0.79375 1.9559-2.8944 2.6949-2.8944 0.24553 0 1.3582-0.77838 2.4727-1.7297 1.1145-0.9513 3.2291-2.433 4.6992-3.2927 1.4701-0.85974 4.207-2.8005 6.0821-4.3128 1.875-1.5123 4.3749-3.2947 5.5551-3.9608 1.1803-0.66611 2.1459-1.3013 2.1459-1.4115 0-0.11027-0.38041-0.73482-0.8454-1.3878-0.46496-0.65301-0.75855-1.2741-0.65242-1.3802 0.10616-0.10615 0.98267 0.1054 1.9478 0.47015 4.7952 1.8123 6.7081 0.81445 5.8664-3.0603-0.14218-0.65466 0.039-1.3725 0.50128-1.9853 0.38294-0.5077 0.60719-0.73234 0.92345-0.74118zm25.4 30.408c0.59068 0 1.6788 0.21878 2.4183 0.48615 1.1937 0.43167 1.3168 0.6112 1.0989 1.6036-0.3442 1.5672 0.58698 1.8032 3.0072 0.76208 1.0837-0.4662 2.351-0.84763 2.8163-0.84763 0.78881 0 0.83795 0.18264 0.72738 2.7057l-0.11865 2.7057-2.6054 0.237c-1.433 0.13035-3.6987 0.36958-5.0349 0.53163l-2.4294 0.29462-0.47683-2.0654c-0.26219-1.1359-0.47667-3.0437-0.47667-4.2394 0-2.0905 0.0412-2.1741 1.0738-2.1741zm12.066 2.7982c0.3114-0.0126 0.75324 0.14528 1.3767 0.42931 1.2552 0.57191 2.4208 2.6065 1.7863 3.118-0.25813 0.20806-1.236 0.50474-2.1729 0.65928l-1.7036 0.28095v-2.2399c0-1.5775 0.11904-2.2235 0.71353-2.2476zm-41.913 3.578-0.25984 1.7222c-0.14289 0.94724-0.36082 2.5851-0.4843 3.6397-0.2117 1.8081-0.33268 1.9721-2.1243 2.88-1.0448 0.5295-3.0056 1.3353-4.3571 1.7905-3.0996 1.0442-8.9837 0.96701-14.007-0.18354-1.1524-0.26395-1.1746-1.298-0.0314-1.4661 1.0177-0.14976 1.5033-1.1302 0.55977-1.1302-0.31205 0-0.82634-0.21067-1.4035-0.52922 2.1214-0.7283 4.4372-1.5072 6.3687-2.1179 1.9517-0.53994 4.3624-1.2506 7.2334-2.1334 3.4172-1.0507 6.729-2.0368 7.3594-2.1912zm-1.5761 11.518c0.24118-0.005 0.40423 0.0235 0.44038 0.0857 0.44778 0.77117-0.69449 6.0034-1.5978 7.3187-0.5469 0.79636-1.1017 2.1492-1.2328 3.0063-0.1311 0.85712-0.49803 1.858-0.81536 2.2243-0.42169 0.48669-0.50277 1.1608-0.30118 2.5053 0.31959 2.1312-0.14859 2.386-1.5686 0.8537-0.8428-0.90939-0.96386-0.93535-1.5641-0.33507-0.53687 0.53684-0.75918 0.5604-1.272 0.13488-0.34173-0.28365-0.62139-0.90907-0.62139-1.3899 0-1.7966-2.1674-5.205-5.1391-8.082-2.8982-2.8056-2.9635-2.9107-2.1321-3.4299 0.47168-0.29459 0.85761-0.74981 0.85761-1.0116 0-0.51575 1.801-0.76443 8.2174-1.1348 2.2046-0.12728 4.6859-0.38606 5.5138-0.57508 0.46569-0.10633 0.90512-0.16495 1.2153-0.17052zm-17.781 4.5535c0.36067 0 3.2858 3.0958 4.565 4.8314 1.3252 1.798 2.1653 5.3614 1.4634 6.2072-0.26752 0.32233-0.7628 0.58606-1.1006 0.58606-0.87548 0-3.3037-2.6871-4.6061-5.097-0.97552-1.805-1.0779-2.3237-0.84677-4.2905 0.14463-1.2304 0.38096-2.2372 0.52516-2.2372zm-2.0082 5.6119c0.20273 0 0.66472 0.89164 1.0267 1.9815 0.36203 1.0899 1.021 2.4429 1.4645 3.0067 0.44351 0.5638 0.74563 1.3406 0.67133 1.7263-0.17252 0.89563-1.5052-1.191-2.6979-4.2241-0.95147-2.4198-0.96468-2.4904-0.46465-2.4904zm-3.4366 1.1359c0.52661 0.00093 1.0637 0.97859 1.0637 2.4504 0 0.61363 0.36074 1.5743 0.80169 2.1349 0.44092 0.56054 0.80165 1.2163 0.80165 1.4571 0 0.45007-1.7361 0.5458-2.8059 0.15473-2.117-0.77389-3.1238-3.3126-1.6305-4.1117 0.42601-0.22799 0.88904-0.77546 1.029-1.2166 0.19145-0.6031 0.46447-0.86967 0.74032-0.86871zm-32.006 124.93 0.8822 1.0021c3.668 4.1664 7.6068 8.8958 8.5964 10.322 0.65027 0.93696 1.1133 1.7035 1.029 1.7035-0.08443 0-1.9159-1.2176-4.07-2.7057-4.6582-3.2181-6.787-6.0608-6.5651-8.7664zm18.876 17.13c0.59758-0.003 0.96588 0.33176 0.96588 0.93163 0 0.72304-0.77685 0.72273-1.7313 0-0.69796-0.52905-0.69382-0.56389 0.0966-0.81477 0.24497-0.0777 0.46965-0.11569 0.66879-0.11631z"/>
</svg>
